<?xml version="1.0" encoding="utf-8"?>
<!-- Generator: Adobe Illustrator 19.1.0, SVG Export Plug-In . SVG Version: 6.00 Build 0)  -->
<svg version="1.1" id="Layer_1" xmlns="http://www.w3.org/2000/svg" xmlns:xlink="http://www.w3.org/1999/xlink" x="0px" y="0px"
	 viewBox="-289 381 32 32" style="enable-background:new -289 381 32 32;" xml:space="preserve">
<style type="text/css">
	.st0{fill:#FFFFFF;}
</style>
<path class="st0" d="M-279,393h4v4h-4V393z M-273,393h4v4h-4V393z M-267,393h4v4h-4V393z M-285,405h4v4h-4V405z M-279,405h4v4h-4
	V405z M-273,405h4v4h-4V405z M-279,399h4v4h-4V399z M-273,399h4v4h-4V399z M-267,399h4v4h-4V399z M-285,399h4v4h-4V399z M-263,381v2
	h-4v-2h-14v2h-4v-2h-4v32h30v-32H-263z M-261,411h-26v-22h26V411z"/>
</svg>
