<svg xmlns="http://www.w3.org/2000/svg" width="366.84" height="68.26" viewBox="0 0 366.84 68.26"><title>CTFEDS-logo</title><g id="bafb8ddd-6d7f-47de-9472-6909a6036adc" data-name="Layer 2"><g id="aade8235-73ec-4a49-9ef1-723460296b80" data-name="Layer 1"><path d="M8,61.13c0-5.26.65-9.07.65-13.9,0-2.81-1.3-5.54-6.19-5.62V37.87c4.89-.07,6.19-2.81,6.19-5.54,0-4.9-.65-8.72-.65-14,0-7.42,2.74-9.58,8.43-9.58h3.24v3.38H17.71c-3.88,0-4.89,1.88-4.89,6.56,0,4.39.43,8.13.43,13,0,4.68-1.23,7-4.32,7.85v.29c3.09.86,4.32,3.24,4.32,7.85,0,4.89-.43,8.64-.43,13,0,4.68,1,6.55,4.89,6.55h1.95v3.39H16.42C10.73,70.71,8,68.54,8,61.13Z" transform="translate(-2.45 -7.63)" fill="#23825c"/><path d="M39.53,42.33c0-11.73,7.85-18.43,16.85-18.43A14.48,14.48,0,0,1,66.6,28l-3,3.88c-2-1.8-4.18-3.09-7-3.09-6.33,0-10.94,5.47-10.94,13.53s4.39,13.4,10.8,13.4a12.46,12.46,0,0,0,8.21-3.53l2.59,4a17.07,17.07,0,0,1-11.31,4.46C46.66,60.62,39.53,53.93,39.53,42.33Z" transform="translate(-2.45 -7.63)" fill="#23825c"/><path d="M75.24,49V29.59H70.06V25.13l5.47-.36.72-9.8h5v9.8h9.43v4.82H81.22V49c0,4.32,1.36,6.77,5.4,6.77a12.58,12.58,0,0,0,4-.94l1.15,4.47a21.51,21.51,0,0,1-6.48,1.29C77.76,60.62,75.24,55.87,75.24,49Z" transform="translate(-2.45 -7.63)" fill="#23825c"/><path d="M114.34,13.32a9.81,9.81,0,0,0-4-.87c-3.32,0-4.9,2.31-4.9,6.77v5.55h7.42v4.82h-7.42V59.76h-5.9V29.59H94.82V25.13l4.76-.36V19.22c0-7.13,3.24-11.59,10.22-11.59a15.79,15.79,0,0,1,5.83,1.15Z" transform="translate(-2.45 -7.63)" fill="#23825c"/><path d="M116.28,42.33c0-11.44,7.7-18.43,15.7-18.43,8.93,0,14,6.41,14,16.42a23.34,23.34,0,0,1-.22,3.38H122.11c.43,7.42,5,12.17,11.67,12.17a15.85,15.85,0,0,0,8.71-2.73L144.58,57a20.81,20.81,0,0,1-11.52,3.6C123.7,60.62,116.28,53.78,116.28,42.33Zm24.48-2.88c0-7.05-3.17-10.87-8.64-10.87-4.9,0-9.36,4-10.08,10.87Z" transform="translate(-2.45 -7.63)" fill="#23825c"/><path d="M152.06,42.33c0-11.37,7.2-18.43,15.2-18.43,4,0,6.69,1.51,9.79,4l-.29-6V8.49h6V59.76h-4.9l-.5-4.1h-.22c-2.74,2.66-6.48,5-10.58,5C157.75,60.62,152.06,54,152.06,42.33Zm24.7,8.5V32.54c-2.95-2.66-5.62-3.67-8.5-3.67-5.61,0-10.08,5.4-10.08,13.39,0,8.36,3.53,13.4,9.65,13.4C171.07,55.66,173.88,54.07,176.76,50.83Z" transform="translate(-2.45 -7.63)" fill="#23825c"/><path d="M190.65,55.8l3-4c3,2.45,6.12,4.18,10.29,4.18,4.61,0,6.91-2.45,6.91-5.48,0-3.6-4.17-5.18-8-6.62-5-1.8-10.44-4.18-10.44-10.08,0-5.62,4.47-9.94,12-9.94a17.46,17.46,0,0,1,10.87,4l-2.81,3.75a13,13,0,0,0-8-3.1c-4.39,0-6.41,2.38-6.41,5,0,3.31,3.82,4.54,7.78,6.05,5,1.87,10.65,4,10.65,10.58,0,5.69-4.53,10.44-12.81,10.44A21.07,21.07,0,0,1,190.65,55.8Z" transform="translate(-2.45 -7.63)" fill="#23825c"/><path d="M223.48,56.16a4.3,4.3,0,1,1,8.57,0,4.29,4.29,0,1,1-8.57,0Z" transform="translate(-2.45 -7.63)" fill="#23825c"/><path d="M239.25,42.33c0-11.73,7.64-18.43,16.21-18.43s16.2,6.7,16.2,18.43S264,60.62,255.46,60.62,239.25,53.93,239.25,42.33Zm26.29,0c0-8.06-4-13.53-10.08-13.53s-10.09,5.47-10.09,13.53,4.11,13.4,10.09,13.4S265.54,50.33,265.54,42.33Z" transform="translate(-2.45 -7.63)" fill="#23825c"/><path d="M280.87,24.77h4.9l.5,6.33h.22c2.37-4.39,6-7.2,9.93-7.2a8.75,8.75,0,0,1,3.75.72L299,29.81a9.86,9.86,0,0,0-3.39-.58c-2.95,0-6.48,2.16-8.86,8.06V59.76h-5.9Z" transform="translate(-2.45 -7.63)" fill="#23825c"/><path d="M302.47,66.46c0-3,1.94-5.76,5.11-7.92v-.29a6.46,6.46,0,0,1-3.1-5.69,8.2,8.2,0,0,1,3.82-6.48v-.29a12.4,12.4,0,0,1-4.54-9.43c0-7.63,6.05-12.46,13.18-12.46a13.83,13.83,0,0,1,5,.87h12.17V29.3h-7.2a10.19,10.19,0,0,1,2.88,7.2c0,7.49-5.69,12.17-12.82,12.17a12.2,12.2,0,0,1-5.25-1.22,5.29,5.29,0,0,0-2.24,4.17c0,2.24,1.44,3.82,6.2,3.82h6.76c8.14,0,12.25,2.52,12.25,8.35,0,6.48-6.85,12.1-17.72,12.1C308.37,75.89,302.47,72.51,302.47,66.46Zm26.42-1.8c0-3.24-2.52-4.32-7.05-4.32h-6a17.19,17.19,0,0,1-4.54-.58c-2.52,1.8-3.6,3.89-3.6,5.9,0,3.75,3.82,6.13,10.16,6.13C324.5,71.79,328.89,68.33,328.89,64.66Zm-4.53-28.3c0-5.11-3.31-8.14-7.42-8.14s-7.42,3-7.42,8.14,3.39,8.35,7.42,8.35S324.36,41.47,324.36,36.36Z" transform="translate(-2.45 -7.63)" fill="#23825c"/><path d="M352.15,67.32H354c3.89,0,4.9-1.87,4.9-6.55,0-4.39-.36-8.14-.36-13,0-4.61,1.15-7,4.24-7.85V39.6c-3.09-.87-4.24-3.17-4.24-7.85,0-4.9.36-8.64.36-13,0-4.68-1-6.56-4.9-6.56h-1.87V8.78h3.17c5.76,0,8.42,2.16,8.42,9.58,0,5.25-.65,9.07-.65,14,0,2.73,1.37,5.47,6.2,5.54v3.74c-4.83.08-6.2,2.81-6.2,5.62,0,4.83.65,8.64.65,13.9,0,7.41-2.66,9.58-8.42,9.58h-3.17Z" transform="translate(-2.45 -7.63)" fill="#23825c"/></g></g></svg>